<svg viewBox="0 0 900 600" xmlns="http://www.w3.org/2000/svg">
<rect fill="#ED2939" width="900" height="300"/>
<rect fill="#FFFFFF" y="300" width="900" height="300"/>
<path fill="#FFFFFF" d="M228.164 163.626h-14.717l-4.549 13.998-4.548-13.998h-14.718l11.908-8.651-4.549-14.002 11.908 8.652 11.909-8.652-4.55 14.002 11.906 8.651zM228.164 126.31h-14.717l-4.549 13.999-4.548-13.999h-14.718l11.908-8.652-4.549-14 11.908 8.65 11.909-8.65-4.55 14 11.906 8.652zM263.66 144.965h-14.718l-4.548 14.001-4.549-14.001h-14.717l11.907-8.651-4.549-14.001 11.908 8.651 11.908-8.651-4.549 14.001 11.907 8.651zM192.668 144.965H177.95l-4.549 14.001-4.548-14.001h-14.717l11.907-8.651-4.549-14.001 11.907 8.651 11.908-8.651-4.549 14.001 11.908 8.651zM157.172 182.28h-14.717l-4.549 14-4.548-14h-14.718l11.908-8.652-4.549-14.001 11.908 8.652 11.908-8.652-4.549 14.001 11.907 8.652z"/>
<path fill="#FFFFFF" d="M149.077 75.31c44.887 0 83.056 26.697 100.82 65.517-10.439-6.3-22.625-9.923-35.61-9.923-38.904 0-70.443 31.538-70.443 70.441 0 13.966 4.195 26.974 11.393 37.955-39.757-16.142-67.957-55.51-67.957-101.325 0-60.015 48.65-108.665 108.664-108.665"/>
</svg>